<?xml version="1.0" encoding="utf-8"?>
<!-- Generator: Adobe Illustrator 16.0.0, SVG Export Plug-In . SVG Version: 6.00 Build 0)  -->
<!DOCTYPE svg PUBLIC "-//W3C//DTD SVG 1.1//EN" "http://www.w3.org/Graphics/SVG/1.1/DTD/svg11.dtd">
<svg version="1.1" id="Layer_1" xmlns="http://www.w3.org/2000/svg" xmlns:xlink="http://www.w3.org/1999/xlink" x="0px" y="0px"
	 width="1002.895px" height="607.891px" viewBox="0 0 1002.895 607.891" enable-background="new 0 0 1002.895 607.891"
	 xml:space="preserve">
<g>
	<path fill="#595959" d="M737.963,519.138c0,1.382-1.044,2.503-2.333,2.503H40.482c-1.288,0-2.333-1.121-2.333-2.503V23.501
		c0-1.382,1.044-2.503,2.333-2.503H735.63c1.289,0,2.333,1.121,2.333,2.503V519.138z"/>
	<path fill="#D3D3D3" d="M714.839,491.602c0,2.769-2.089,5.009-4.666,5.009H66.345c-2.577,0-4.666-2.24-4.666-5.009V51.038
		c0-2.765,2.089-5.006,4.666-5.006h643.828c2.577,0,4.666,2.242,4.666,5.006V491.602z"/>
</g>
<g>
	<rect x="206.269" y="199.229" fill="#F1F2F2" width="90.72" height="144.083"/>
	<circle fill="#F1F2F2" cx="206.269" cy="271.271" r="72.042"/>
</g>
<g>
	<circle fill="#F1F2F2" cx="388.259" cy="271.321" r="116.244"/>
	<path fill="#091418" stroke="#000000" stroke-miterlimit="10" d="M291.085,271.321c0.001-29.15,11.559-54.281,31.886-72.092
		c65.157,0,40.642,0,65.157,0c24.229,0,0,0,65.152,0c20.677,17.82,32.149,42.654,32.149,72.092
		c0,29.483-11.305,54.172-32.036,71.991c-65.268,0-41.084,0-65.268,0c-24.007,0-26.172,0-65.261,0
		C301.919,325.489,291.086,300.981,291.085,271.321z"/>
	<g id="button1">
		<path fill="#131028" stroke="#FFFFFF" stroke-miterlimit="10" d="M354.753,287.312c0,2.209-1.791,4-4,4h-20c-2.209,0-4-1.791-4-4
			v-20c0-2.209,1.791-4,4-4h20c2.209,0,4,1.791,4,4V287.312z"/>
		<text transform="matrix(1 0 0 1 336.1694 283.7285)" fill="#FFFFFF" font-family="'MyriadPro-Regular'" font-size="18">1</text>
	</g>
	<g id="button3">
		<path fill="#131028" stroke="#FFFFFF" stroke-miterlimit="10" d="M449.419,287.312c0,2.209-1.791,4-4,4h-20c-2.209,0-4-1.791-4-4
			v-20c0-2.209,1.791-4,4-4h20c2.209,0,4,1.791,4,4V287.312z"/>
		<text transform="matrix(1 0 0 1 430.8364 283.7285)" fill="#FFFFFF" font-family="'MyriadPro-Regular'" font-size="18">3</text>
	</g>
	<g id="button2">
		<path fill="#131028" stroke="#FFFFFF" stroke-miterlimit="10" d="M402.259,287.312c0,2.209-1.791,4-4,4h-20c-2.209,0-4-1.791-4-4
			v-20c0-2.209,1.791-4,4-4h20c2.209,0,4,1.791,4,4V287.312z"/>
		<text transform="matrix(1 0 0 1 383.6753 283.7285)" fill="#FFFFFF" font-family="'MyriadPro-Regular'" font-size="18">2</text>
	</g>
	<g id="button4">
		<path fill="#131028" stroke="#FFFFFF" stroke-miterlimit="10" d="M354.926,328.312c0,2.209-1.791,4-4,4h-20c-2.209,0-4-1.791-4-4
			v-20c0-2.209,1.791-4,4-4h20c2.209,0,4,1.792,4,4V328.312z"/>
		<text transform="matrix(1 0 0 1 336.3433 324.7285)" fill="#FFFFFF" font-family="'MyriadPro-Regular'" font-size="18">4</text>
	</g>
	<g id="button6">
		<path fill="#131028" stroke="#FFFFFF" stroke-miterlimit="10" d="M449.593,328.312c0,2.209-1.791,4-4,4h-20c-2.209,0-4-1.791-4-4
			v-20c0-2.209,1.791-4,4-4h20c2.209,0,4,1.792,4,4V328.312z"/>
		<text transform="matrix(1 0 0 1 431.0093 324.7285)" fill="#FFFFFF" font-family="'MyriadPro-Regular'" font-size="18">6</text>
	</g>
	<g id="button5">
		<path fill="#131028" stroke="#FFFFFF" stroke-miterlimit="10" d="M402.433,328.312c0,2.209-1.791,4-4,4h-20c-2.209,0-4-1.791-4-4
			v-20c0-2.209,1.791-4,4-4h20c2.209,0,4,1.792,4,4V328.312z"/>
		<text transform="matrix(1 0 0 1 383.8491 324.7285)" fill="#FFFFFF" font-family="'MyriadPro-Regular'" font-size="18">5</text>
	</g>
	<circle id="led" fill="#414042" cx="437.669" cy="186.479" r="3"/>
</g>
<g id="handle">
	<circle fill="#E6E7E8" cx="206.269" cy="271.246" r="50"/>
	<path fill="#BCBEC0" d="M212.34,271.283c0,25.354,1.786,34.844,4.643,48.793c-1.057,0.311-0.446,0.363-4.911,0.988
		c-2.231,0.312-4.614,0.219-5.804,0.219c-1.249,0-3.909-0.137-6.192-0.416c-3.48-0.428-3.202-0.479-4.522-0.732
		c2.857-13.953,4.643-23.543,4.643-48.852c0-25.392-1.786-34.963-4.643-48.924c1.138-0.148,3.485-0.639,5.742-0.869
		c2.002-0.204,3.927-0.208,4.973-0.208c1.092,0,3.301,0.034,5.443,0.257c2.142,0.224,4.039,0.607,5.271,0.798
		C214.146,236.296,212.34,245.851,212.34,271.283z"/>
</g>
<g>
	<path fill="#F1F2F2" d="M615.727,584.329c-6.034,0-10.93-4.896-10.93-10.93v-158.48c0-6.036,4.896-10.93,10.93-10.93h349.748
		c6.036,0,10.932,4.894,10.932,10.93v158.479c0,6.034-4.896,10.93-10.932,10.93L615.727,584.329L615.727,584.329z"/>
	<rect x="645.256" y="413.423" fill="#58595B" width="305.242" height="161.06"/>
	<circle fill="none" stroke="#939598" stroke-miterlimit="10" cx="624.932" cy="493.952" r="12.654"/>
	<path fill="#414042" d="M962.578,509.114c-0.318,0-0.575-1.03-0.575-2.301v-25.311c0-1.271,0.257-2.301,0.575-2.301l0,0
		c0.316,0,0.575,1.03,0.575,2.301v25.311C963.153,508.083,962.895,509.114,962.578,509.114L962.578,509.114z"/>
	<circle fill="#414042" cx="962.578" cy="470.178" r="1.534"/>
	<circle fill="#414042" cx="969.863" cy="494.159" r="1.15"/>
</g>
<linearGradient id="SVGID_1_" gradientUnits="userSpaceOnUse" x1="963.3018" y1="1203.1348" x2="979.4053" y2="1203.1348" gradientTransform="matrix(-4.371139e-08 1 -1 -4.371139e-08 1795.8516 -477.1948)">
	<stop  offset="0" style="stop-color:#EBEBEB"/>
	<stop  offset="0.4516" style="stop-color:#FFFFFF"/>
	<stop  offset="1" style="stop-color:#E6E6E6"/>
</linearGradient>
<rect x="580.638" y="486.106" fill="url(#SVGID_1_)" width="24.159" height="16.104"/>
<linearGradient id="SVGID_2_" gradientUnits="userSpaceOnUse" x1="967.1201" y1="1223.8418" x2="975.1729" y2="1223.8418" gradientTransform="matrix(-4.371139e-08 1 -1 -4.371139e-08 1795.8516 -477.1948)">
	<stop  offset="0" style="stop-color:#EBEBEB"/>
	<stop  offset="0.4516" style="stop-color:#FFFFFF"/>
	<stop  offset="1" style="stop-color:#E6E6E6"/>
</linearGradient>
<rect x="563.382" y="489.925" fill="url(#SVGID_2_)" width="17.256" height="8.053"/>
<path fill="#E6E7E8" d="M879.102,527.808c0,1.271-1.029,2.303-2.302,2.303H704.814c-1.271,0-2.303-1.03-2.303-2.303v-53.492
	c0-1.271,1.03-2.303,2.303-2.303H876.8c1.271,0,2.302,1.03,2.302,2.303V527.808z"/>
<text id="codebreaker_x5F_result" transform="matrix(1 0 0 1 743.9082 512.8652)" fill="#00AEEF" font-family="'Ayuthaya'" font-size="36">    </text>
<image overflow="visible" enable-background="new    " width="383" height="55" xlink:href="49B381F05EBC4175.png"  transform="matrix(0.3951 0 0 0.3951 655.4258 421.1074)">
</image>
<g id="button_x5F_hint">
	<path fill="#00AEEF" d="M879.102,561.482c0,1.271-1.029,2.301-2.302,2.301h-41.415c-1.271,0-2.301-1.03-2.301-2.301v-18.406
		c0-1.271,1.03-2.301,2.301-2.301H876.8c1.271,0,2.302,1.028,2.302,2.301V561.482z"/>
	<text transform="matrix(1 0 0 1 841.0918 557.4561)" fill="#E6E7E8" font-family="'LucidaGrande'" font-size="13.8049">Hint</text>
</g>
<text transform="matrix(1 0 0 1 701.6875 465.1934)" fill="#FFFFFF" font-family="'LucidaGrande'" font-size="14">Available attempts:</text>
<text id="available_x5F_attempts" transform="matrix(1 0 0 1 839.4453 465.4229)" fill="#FFFFFF" font-family="'LucidaGrande-Bold'" font-size="14">10</text>
<path fill="none" stroke="#E6E7E8" stroke-width="3" stroke-miterlimit="10" d="M562.894,493.391
	c-11.5,0.77-16.596,6.432-24.084,11.842c-6.758,4.884-12.555,10.961-18.224,17.029c-11.276,12.073-22.637,25.232-38.928,30.385
	c-27.36,8.65-67.039,5.537-86.498-17.691c-9.229-11.016-15.751-26.878-16.277-41.289c-0.627-17.171,9.101-33.53,12.784-49.974
	c1.85-8.248,2.033-18.093-0.273-26.302"/>
<path fill="none" stroke="#ED1C24" stroke-miterlimit="10" d="M390.895,417.391c-2.636-10.125-36.572-7.11-44.447-19
	c-1.121-1.69,0.268-5.324-1.039-7.037c-2.665-3.496-7.27-2.002-10.05-4.414c-4.688-4.062-1.464-6.674,0.095-12.034"/>
<path fill="none" stroke="#39B54A" stroke-miterlimit="10" d="M391.395,417.391c-1.375-10.5-16.834-6.803-25.957-6.109
	c-12.404,0.938-19.63-0.562-27.918-11.266c-2.806-3.618-9.222-4.664-8.875-9.125c0.661-8.514,1.915-2.062,4.799-6.207
	c3.822-5.498,0.983-4.56,2.899-9.293"/>
<path fill="#1C75BC" d="M449.593,242.891c0,1.104-0.896,2-2,2H328.926c-1.104,0-2-0.896-2-2v-29c0-1.104,0.896-2,2-2h118.667
	c1.104,0,2,0.896,2,2V242.891z"/>
<text id="guess_x5F_code" transform="matrix(1 0 0 1 364.6558 234.8906)" fill="#00AEEF" font-family="'LucidaGrande'" font-size="18" letter-spacing="1">____</text>
</svg>
